<svg width="243" height="77" viewBox="0 0 243 77" fill="none" xmlns="http://www.w3.org/2000/svg">
<g clip-path="url(#clip0_0_42)">
<path fill-rule="evenodd" clip-rule="evenodd" d="M2.04208 37.0475V29.1933H9.36881C12.5667 29.1933 14.3662 30.6775 14.3662 32.8781V32.9359C14.3662 35.2738 12.7062 36.6808 10.2611 36.9854V38.446C13.6477 38.6454 15.4815 40.0332 15.4815 42.3045V42.3603C15.4815 44.874 13.3088 46.444 9.88141 46.444H2.04208V38.4181V37.0475ZM12.481 37.5344C14.1089 36.876 15.8805 35.5054 15.8805 32.7922V32.7343C15.8805 29.7359 13.2809 27.8227 9.39668 27.8227H0.557861V47.8167H9.82567C14.1389 47.8167 16.9958 45.7019 16.9958 42.3603V42.3045C16.9958 39.5334 14.8789 38.1629 12.481 37.5344ZM226.935 47.8167V27.8227H242.018V31.7348H231.306V35.7907H240.731V39.705H231.306V43.9024H242.159V47.8167H226.935ZM212.739 48.1599C206.512 48.1599 202.23 43.7888 202.23 37.8755V37.8176C202.23 32.1338 206.656 27.4795 212.713 27.4795C216.31 27.4795 218.48 28.4511 220.567 30.2206L217.796 33.5622C216.254 32.2775 214.882 31.5354 212.569 31.5354C209.369 31.5354 206.828 34.3622 206.828 37.7618V37.8176C206.828 41.4745 209.339 44.1598 212.885 44.1598C214.483 44.1598 215.911 43.7609 217.024 42.9609V40.1039H212.598V36.3055H221.282V44.9877C219.224 46.7314 216.396 48.1599 212.739 48.1599ZM193.146 47.8167L183.462 35.1065V47.8167H179.123V27.8227H183.177L192.545 40.1318V27.8227H196.889V47.8167H193.146ZM166.612 39.4477L163.952 32.9639L161.298 39.4477H166.612ZM161.298 39.4477L157.897 47.8167H153.413L161.981 27.679H166.039L174.609 47.8167H170.01L166.612 39.4477H161.298ZM144.503 47.8167V39.7887H136.392V47.8167H131.993V27.8227H136.392V35.735H144.503V27.8227H148.902V47.8167H144.503ZM118.853 48.1599C112.968 48.1599 108.599 43.6172 108.599 37.8755V37.8176C108.599 32.1338 112.882 27.4795 119.023 27.4795C122.795 27.4795 125.052 28.7363 126.908 30.5638L124.108 33.7917C122.566 32.3912 120.994 31.5354 118.995 31.5354C115.626 31.5354 113.195 34.3344 113.195 37.7618V37.8176C113.195 41.2471 115.568 44.104 118.995 44.104C121.281 44.104 122.68 43.1882 124.252 41.7597L127.049 44.5887C124.994 46.7893 122.71 48.1599 118.853 48.1599ZM90.8567 40.9619V47.8167H89.3731V27.8227H90.8567V40.9619ZM102.429 27.8227H104.458L95.717 36.6465L104.828 47.8167H102.888L93.8317 36.6894L102.429 27.8227ZM75.9184 48.1599C70.2046 48.1599 65.9793 43.6172 65.9793 37.8755V37.8176C65.9793 32.1638 70.2046 27.4795 75.9763 27.4795C79.5474 27.4795 81.688 28.7922 83.7449 30.6774L82.6896 31.7627C80.9459 30.0769 78.9447 28.8222 75.9463 28.8222C71.1483 28.8222 67.5193 32.7343 67.5193 37.7618V37.8176C67.5193 42.875 71.2062 46.8172 75.9763 46.8172C78.8589 46.8172 80.8301 45.702 82.859 43.703L83.8585 44.6746C81.7459 46.7594 79.4616 48.1599 75.9184 48.1599ZM58.837 37.8176C58.837 32.878 55.2401 28.8222 50.2985 28.8222C45.3547 28.8222 41.8135 32.8201 41.8135 37.7618V37.8176C41.8135 42.7614 45.4126 46.8172 50.3542 46.8172C55.2959 46.8172 58.837 42.8171 58.837 37.8755V37.8176ZM50.2985 48.1599C44.2415 48.1599 40.2714 43.3319 40.2714 37.8755V37.8176C40.2714 32.3632 44.2994 27.4795 50.3542 27.4795C56.4112 27.4795 60.3791 32.3075 60.3791 37.7618C60.4092 37.7897 60.4092 37.7897 60.3791 37.8176C60.3791 43.274 56.3533 48.1599 50.2985 48.1599ZM23.1922 47.8167V27.8227H24.6786V46.444H36.4172V47.8167H23.1922Z" fill="white"/>
</g>
<defs>
<clipPath id="clip0_0_42">
<rect width="242.365" height="76.1719" fill="white" transform="translate(0.426849 0.359375)"/>
</clipPath>
</defs>
</svg>
