<svg width="243" height="45" viewBox="0 0 243 45" fill="none" xmlns="http://www.w3.org/2000/svg">
<g clip-path="url(#clip0_0_38)">
<path d="M49.9062 12.6268C41.1721 12.6268 34.3475 19.257 34.3475 28.133C34.3475 37.009 40.9996 43.5825 49.9062 43.5825C58.8127 43.5825 65.5805 36.8955 65.5805 28.0762C65.5805 19.3138 58.9284 12.6268 49.9062 12.6268ZM49.9628 37.1836C44.9891 37.1836 41.3445 33.3206 41.3445 28.133C41.3445 22.8864 44.9301 19.0257 49.9039 19.0257C54.9366 19.0257 58.5792 22.9453 58.5792 28.133C58.5792 33.3206 54.9366 37.1836 49.9628 37.1836ZM67.4878 19.3705H71.8266V43.0063H78.7666V13.2029H67.4878V19.3705ZM16.8815 19.0257C20.5261 19.0257 23.4179 21.2736 24.5156 24.6171H31.8617C30.5304 17.4696 24.6314 12.6268 16.9405 12.6268C8.20635 12.6268 1.38187 19.257 1.38187 28.133C1.38187 37.009 8.03393 43.5825 16.9405 43.5825C24.459 43.5825 30.4737 38.7396 31.805 31.5332H24.5179C23.4769 34.8767 20.5852 37.1836 16.9405 37.1836C11.9078 37.1836 8.38094 33.3206 8.38094 28.133C8.37876 22.8886 11.8489 19.0257 16.8815 19.0257ZM199.355 25.2522L194.266 24.5036C191.837 24.1588 190.102 23.3513 190.102 21.4482C190.102 19.3727 192.358 18.336 195.423 18.336C198.777 18.336 200.918 19.7764 201.381 22.14H208.089C207.336 16.1449 202.71 12.629 195.597 12.629C188.251 12.629 183.393 16.3762 183.393 21.6795C183.393 26.7515 186.575 29.6934 192.993 30.6144L198.083 31.363C200.571 31.7078 201.959 32.6899 201.959 34.5341C201.959 36.8977 199.53 37.8776 196.175 37.8776C192.068 37.8776 189.755 36.2058 189.408 33.6698H182.583C183.221 39.4926 187.788 43.5846 196.117 43.5846C203.694 43.5846 208.724 40.1255 208.724 34.1871C208.724 28.8837 205.08 26.1164 199.355 25.2522ZM75.2967 0.924551C72.7519 0.924551 70.8422 2.76871 70.8422 5.3047C70.8422 7.84069 72.7498 9.68485 75.2967 9.68485C77.8414 9.68485 79.751 7.84069 79.751 5.3047C79.7488 2.76871 77.8414 0.924551 75.2967 0.924551ZM177.147 23.4058C177.147 16.9502 173.214 12.6268 164.886 12.6268C157.02 12.6268 152.625 16.6054 151.756 22.7162H158.64C158.987 20.3526 160.837 18.3928 164.77 18.3928C168.299 18.3928 170.034 19.9489 170.034 21.8519C170.034 24.3312 166.852 24.9641 162.92 25.3678C157.599 25.944 151.006 27.7882 151.006 34.7065C151.006 40.0687 154.997 43.5257 161.359 43.5257C166.333 43.5257 169.456 41.4502 171.019 38.1635C171.25 41.1032 173.448 43.0063 176.514 43.0063H180.562V36.8387H177.149V23.4058H177.147ZM170.32 30.9003C170.32 34.8789 166.85 37.8186 162.627 37.8186C160.023 37.8186 157.826 36.7231 157.826 34.4184C157.826 31.4787 161.355 30.6712 164.593 30.3263C167.716 30.0383 169.452 29.3464 170.32 28.0195V30.9003ZM133.478 12.6268C129.602 12.6268 126.364 14.2418 124.05 16.9502V0.636475H117.11V43.0085H123.935V39.0888C126.248 41.9129 129.546 43.5846 133.478 43.5846C141.807 43.5846 148.112 37.0133 148.112 28.1352C148.112 19.257 141.693 12.6268 133.478 12.6268ZM132.437 37.1836C127.464 37.1836 123.819 33.3206 123.819 28.133C123.819 22.9453 127.52 19.0257 132.494 19.0257C137.527 19.0257 141.054 22.8886 141.054 28.133C141.056 33.3228 137.411 37.1836 132.437 37.1836ZM100.512 12.6268C96.0014 12.6268 93.0508 14.4709 91.3158 17.0659V13.2029H84.4323V43.0063H91.3725V26.8082C91.3725 22.2535 94.2642 19.0257 98.544 19.0257C102.536 19.0257 105.022 21.8498 105.022 25.944V43.0085H111.962V25.4268C111.964 17.9301 108.09 12.6268 100.512 12.6268ZM241.806 27.1531C241.806 18.6219 235.56 12.6268 227.173 12.6268C218.266 12.6268 211.73 19.3138 211.73 28.133C211.73 37.4149 218.729 43.5825 227.288 43.5825C234.519 43.5825 240.186 39.3158 241.631 33.2639H234.401C233.36 35.9156 230.815 37.4149 227.402 37.4149C222.947 37.4149 219.593 34.6476 218.842 29.8047H241.804V27.1531H241.806ZM219.25 24.8484C220.35 20.6974 223.473 18.6809 227.059 18.6809C230.992 18.6809 233.999 20.9288 234.693 24.8484H219.25Z" fill="white"/>
</g>
<defs>
<clipPath id="clip0_0_38">
<rect width="242" height="44" fill="white" transform="translate(0.59375 0.4375)"/>
</clipPath>
</defs>
</svg>
