<svg width="243" height="51" viewBox="0 0 243 51" fill="none" xmlns="http://www.w3.org/2000/svg">
<g clip-path="url(#clip0_0_23)">
<path d="M50.3541 0.34375H0.210693V50.4872H50.3541V0.34375Z" fill="white"/>
<path d="M23.611 28.7592L14.9194 12.5461H18.9309L23.9453 22.742C23.9453 22.9091 24.1124 23.0762 24.2795 23.2434C24.4467 23.4105 24.4467 23.5777 24.6138 23.912L24.781 24.0791V24.2463C24.9481 24.5806 24.9481 24.7478 25.1153 25.082C25.2824 25.2492 25.2824 25.5835 25.4495 25.7506C25.6167 25.2492 25.951 24.9149 26.1181 24.2463C26.2852 23.7448 26.6195 23.2434 26.9538 22.742L31.9682 12.5461H35.6454L26.9538 28.9263V39.2893H23.611V28.7592Z" fill="black"/>
<path d="M73.253 10.0388C75.7602 10.0388 77.933 10.7074 79.6045 12.0445L77.933 14.0503C76.4288 13.0474 74.9245 12.3788 73.0858 12.3788C70.2444 12.3788 68.0715 13.8832 66.9015 16.7246C66.2329 18.3961 65.8987 20.5689 65.8987 23.4104C65.8987 25.5833 66.2329 27.4218 66.7344 28.759C68.0715 31.9347 70.2444 33.4391 73.5873 33.4391C75.4259 33.4391 77.0973 32.9377 78.6016 31.7676L80.2731 33.9405C78.1002 35.2777 75.7602 35.9462 73.253 35.9462C70.2444 35.9462 67.7372 34.7762 65.7315 32.269C63.7257 29.929 62.89 26.7533 62.89 22.909C62.89 19.0646 63.8929 16.056 65.8987 13.5489C67.7372 11.376 70.2444 10.0388 73.253 10.0388Z" fill="white"/>
<path d="M82.7803 26.5855C82.7803 23.577 83.4488 21.2369 84.9531 19.5655C86.4575 17.8941 88.2964 16.8911 90.636 16.8911C93.3106 16.8911 95.4832 17.8941 96.9876 20.0669C98.1578 21.7383 98.659 24.0784 98.659 26.9198C98.659 30.2627 97.6558 32.9371 95.8173 34.6085C94.48 35.7785 92.8086 36.447 90.8031 36.447C88.2964 36.447 86.4575 35.6113 84.9531 33.7728C83.4488 32.1013 82.7803 29.5941 82.7803 26.5855ZM94.48 21.7383C93.6447 20.234 92.4745 19.3983 90.636 19.3983C88.7975 19.3983 87.6273 20.0669 86.792 21.404C86.1232 22.4069 85.956 24.0784 85.956 26.2512C85.956 29.0927 86.2903 31.0984 87.1261 32.2684C87.9614 33.4385 89.1317 34.1071 90.8031 34.1071C92.8086 34.1071 94.1459 33.1042 94.815 31.2656C95.1491 30.2627 95.3162 28.9256 95.3162 27.2541C95.4832 24.747 95.1491 22.9084 94.48 21.7383Z" fill="white"/>
<path d="M104.007 22.0726C104.007 20.234 103.84 18.7298 103.339 17.5597L106.181 16.8911C106.682 17.7268 106.849 18.7298 106.849 19.5655V19.7326C107.517 19.064 108.186 18.3955 109.19 17.8941C110.359 17.2254 111.362 16.8911 112.364 16.8911C113.869 16.8911 115.206 17.5597 116.042 18.7298C116.209 19.064 116.543 19.5655 116.711 19.8998C118.716 17.8941 120.555 16.8911 122.561 16.8911C123.898 16.8911 125.068 17.3925 125.904 18.2283C126.739 19.2312 127.241 20.4012 127.241 21.7383V35.6113H124.232V21.9055C124.232 20.0669 123.396 19.2312 121.892 19.2312C121.057 19.2312 120.053 19.5655 119.218 20.234C118.884 20.5683 118.215 21.0697 117.38 21.7383L117.045 22.0726V35.6113H113.869V22.574C113.869 21.404 113.702 20.5683 113.368 20.234C112.867 19.7326 112.364 19.5655 111.529 19.5655C110.192 19.5655 108.688 20.4012 106.849 22.0726V35.7785H104.007V22.0726Z" fill="white"/>
<path d="M132.422 9.36947L135.431 8.70093C135.765 10.0381 135.932 11.5424 135.932 13.381V17.5596C135.932 18.5624 135.932 19.231 135.932 19.5654C137.604 17.8939 139.442 17.0582 141.281 17.0582C143.454 17.0582 145.293 17.8939 146.463 19.5654C147.799 21.2368 148.468 23.5768 148.468 26.4183C148.468 29.4269 147.799 31.7669 146.463 33.6055C145.125 35.4441 143.287 36.2798 141.114 36.2798C140.111 36.2798 139.275 36.1127 138.272 35.6112C137.27 35.1098 136.6 34.6084 136.099 33.9397C135.932 34.7755 135.765 35.4441 135.598 35.9455H132.756C133.091 35.1098 133.258 33.6055 133.258 31.2655V13.7152C133.091 11.7095 132.924 10.2053 132.422 9.36947ZM137.27 20.7354C136.768 21.0697 136.266 21.5711 135.932 22.0725V31.5998C137.103 33.104 138.607 33.7726 140.445 33.7726C141.95 33.7726 143.119 33.2712 143.788 32.1012C144.623 30.764 145.125 28.9254 145.125 26.2511C145.125 23.9111 144.791 22.2396 143.955 21.2368C143.287 20.2339 142.117 19.7325 140.445 19.7325C139.442 19.5654 138.272 19.8997 137.27 20.7354Z" fill="white"/>
<path d="M152.813 11.7097C152.813 11.0411 152.981 10.5397 153.483 10.0382C153.984 9.53677 154.485 9.36963 155.154 9.36963C155.822 9.36963 156.324 9.53677 156.825 10.0382C157.327 10.5397 157.494 11.0411 157.494 11.7097C157.494 12.3783 157.327 12.8797 156.825 13.3811C156.324 13.8825 155.822 14.0497 155.154 14.0497C154.485 14.0497 153.984 13.8825 153.483 13.3811C152.981 12.8797 152.813 12.3783 152.813 11.7097ZM153.483 35.7785V17.3926L156.491 16.8912V35.7785H153.483Z" fill="white"/>
<path d="M163.01 22.0726C163.01 20.7355 163.01 19.8998 162.843 19.5655C162.843 19.064 162.509 18.5626 162.174 17.7268L165.015 16.8911C165.517 17.8941 165.684 18.7298 165.684 19.7326C167.523 17.8941 169.529 16.8911 171.534 16.8911C172.537 16.8911 173.373 17.0583 174.209 17.5597C175.044 18.0612 175.713 18.7298 176.047 19.5655C176.381 20.234 176.548 20.9026 176.548 21.7383V35.7785H173.707V23.2427C173.707 21.7383 173.54 20.7355 173.038 20.234C172.537 19.7326 171.868 19.3983 171.033 19.3983C170.364 19.3983 169.361 19.7326 168.358 20.234C167.356 20.7355 166.52 21.404 165.852 22.0726V35.7785H163.01V22.0726Z" fill="white"/>
<path d="M183.234 21.404L181.73 19.3983C184.237 17.7268 186.744 16.8911 189.418 16.8911C192.093 16.8911 193.765 17.8941 194.6 19.7326C194.935 20.4012 194.935 21.404 194.935 22.9084V23.9112L194.767 29.9284C194.767 30.0956 194.767 30.4299 194.767 30.7641C194.767 31.767 194.767 32.4356 194.935 32.9371C195.102 33.6056 195.603 34.1071 196.271 34.4413L194.767 36.447C193.43 35.9456 192.594 35.1099 192.26 33.7728C190.589 35.4442 188.75 36.2799 186.912 36.2799C185.072 36.2799 183.569 35.7785 182.399 34.7756C181.396 33.9399 180.894 32.6028 180.894 30.9313C180.894 28.7584 181.73 27.2541 183.401 26.0841C185.072 24.9141 187.58 24.4127 190.589 24.4127C191.09 24.4127 191.424 24.4127 191.926 24.4127V23.0755C191.926 21.5712 191.759 20.5683 191.257 20.234C190.589 19.5655 189.92 19.2312 188.75 19.2312C187.747 19.2312 186.577 19.5655 185.24 20.0669C184.738 20.4012 184.07 20.9026 183.234 21.404ZM192.093 31.2656L192.26 26.4184C191.424 26.4184 190.923 26.4184 190.756 26.4184C188.081 26.4184 186.41 26.9198 185.407 27.9227C184.738 28.5913 184.404 29.5941 184.404 30.9313C184.404 33.1042 185.407 34.2742 187.58 34.2742C189.586 34.1071 191.09 33.1042 192.093 31.2656Z" fill="white"/>
<path d="M204.461 17.3923H209.141L208.306 19.7323H204.461V31.5996C204.461 32.6025 204.629 33.2711 204.963 33.7725C205.297 34.1068 205.966 34.4411 206.802 34.4411C207.47 34.4411 208.139 34.274 208.64 34.1068L208.974 35.9454C207.972 36.4468 206.969 36.614 205.799 36.614C202.958 36.614 201.62 35.2768 201.62 32.4353V19.7323H199.113V17.3923H201.453V17.058C201.453 16.7238 201.62 15.3866 201.787 13.2137V12.7123L204.796 12.0437C204.461 14.0494 204.461 15.888 204.461 17.3923Z" fill="white"/>
<path d="M212.15 26.5855C212.15 23.577 212.819 21.2369 214.324 19.5655C215.66 17.8941 217.666 16.8911 220.006 16.8911C222.681 16.8911 224.853 17.8941 226.358 20.0669C227.528 21.7383 228.029 24.0784 228.029 26.9198C228.029 30.2627 227.026 32.9371 225.187 34.6085C223.85 35.7785 222.179 36.447 220.173 36.447C217.666 36.447 215.828 35.6113 214.324 33.7728C212.986 32.1013 212.15 29.5941 212.15 26.5855ZM224.018 21.7383C223.182 20.234 222.012 19.3983 220.173 19.3983C218.335 19.3983 217.164 20.0669 216.329 21.404C215.66 22.4069 215.493 24.0784 215.493 26.2512C215.493 29.0927 215.827 31.0984 216.663 32.2684C217.499 33.4385 218.669 34.1071 220.34 34.1071C222.347 34.1071 223.683 33.1042 224.352 31.2656C224.686 30.2627 224.853 28.9256 224.853 27.2541C224.853 24.747 224.519 22.9084 224.018 21.7383Z" fill="white"/>
<path d="M233.544 21.7383C233.544 20.0669 233.377 18.7298 232.876 17.7268L235.718 16.8911C236.219 17.8941 236.386 18.7298 236.386 19.7326V20.0669C237.89 18.0612 239.562 17.0583 241.567 17.0583C241.902 17.0583 242.236 17.0583 242.571 17.2254L241.4 20.4012C241.066 20.234 240.732 20.234 240.565 20.234C239.896 20.234 239.061 20.4012 238.392 20.9026C237.723 21.404 237.055 21.9055 236.72 22.5741C236.553 23.0755 236.386 23.7441 236.386 24.5798V36.1128H233.544V21.7383Z" fill="white"/>
</g>
<defs>
<clipPath id="clip0_0_23">
<rect width="242.36" height="50.2031" fill="white" transform="translate(0.210693 0.34375)"/>
</clipPath>
</defs>
</svg>
