<svg width="720" height="247" viewBox="0 0 720 247" fill="none" xmlns="http://www.w3.org/2000/svg">
<g clip-path="url(#clip0_0_49)">
<path d="M656.5 123.701C656.5 183.188 608.27 231.417 548.783 231.417C481.436 231.417 414.128 177.579 360.25 123.701C306.372 69.8229 239.064 15.9844 171.716 15.9844C112.23 15.9844 64 64.2139 64 123.701C64 183.188 112.23 231.417 171.716 231.417C239.064 231.417 306.372 177.579 360.25 123.701C414.128 69.8229 481.436 15.9844 548.783 15.9844C608.27 15.9844 656.5 64.2139 656.5 123.701Z" stroke="url(#paint0_linear_0_49)" stroke-miterlimit="10" stroke-linecap="square"/>
<g opacity="0.6">
<path d="M88.612 102.492H93.89C94.774 102.492 95.606 102.596 96.386 102.804C97.1833 102.995 97.8767 103.316 98.466 103.766C99.0553 104.2 99.5233 104.763 99.87 105.456C100.217 106.132 100.39 106.956 100.39 107.926V108.03C100.39 109.018 100.217 109.859 99.87 110.552C99.5233 111.246 99.0553 111.818 98.466 112.268C97.8767 112.702 97.1833 113.022 96.386 113.23C95.606 113.421 94.774 113.516 93.89 113.516H90.874V121.082H88.612V102.492ZM94.046 111.722C95.3807 111.722 96.3947 111.41 97.088 110.786C97.7813 110.145 98.128 109.226 98.128 108.03V107.926C98.128 106.609 97.764 105.682 97.036 105.144C96.308 104.59 95.3113 104.312 94.046 104.312H90.874V111.722H94.046Z" fill="white"/>
<path d="M107.147 121.316C106.523 121.316 105.934 121.238 105.379 121.082C104.825 120.926 104.339 120.683 103.923 120.354C103.524 120.025 103.204 119.609 102.961 119.106C102.736 118.603 102.623 118.005 102.623 117.312C102.623 116.532 102.814 115.873 103.195 115.336C103.577 114.799 104.079 114.366 104.703 114.036C105.345 113.707 106.072 113.473 106.887 113.334C107.719 113.178 108.568 113.1 109.435 113.1H111.385V112.112C111.385 111.02 111.16 110.24 110.709 109.772C110.259 109.287 109.513 109.044 108.473 109.044C106.601 109.044 105.561 109.859 105.353 111.488H103.195C103.265 110.708 103.455 110.05 103.767 109.512C104.097 108.975 104.504 108.542 104.989 108.212C105.492 107.866 106.046 107.623 106.653 107.484C107.277 107.328 107.919 107.25 108.577 107.25C109.219 107.25 109.842 107.328 110.449 107.484C111.056 107.623 111.584 107.883 112.035 108.264C112.486 108.628 112.85 109.122 113.127 109.746C113.405 110.37 113.543 111.159 113.543 112.112V121.082H111.385V119.366C110.883 120.007 110.302 120.493 109.643 120.822C108.984 121.151 108.153 121.316 107.147 121.316ZM107.355 119.6C107.927 119.6 108.456 119.531 108.941 119.392C109.444 119.236 109.868 119.019 110.215 118.742C110.579 118.465 110.865 118.127 111.073 117.728C111.281 117.312 111.385 116.844 111.385 116.324V114.634H109.513C108.837 114.634 108.205 114.686 107.615 114.79C107.043 114.877 106.541 115.024 106.107 115.232C105.691 115.44 105.362 115.717 105.119 116.064C104.894 116.393 104.781 116.809 104.781 117.312C104.781 118.023 104.972 118.586 105.353 119.002C105.734 119.401 106.402 119.6 107.355 119.6Z" fill="white"/>
<path d="M122.299 121.316C120.67 121.316 119.387 120.935 118.451 120.172C117.532 119.392 117.038 118.3 116.969 116.896H119.075C119.162 117.711 119.439 118.352 119.907 118.82C120.392 119.288 121.181 119.522 122.273 119.522C123.313 119.522 124.067 119.349 124.535 119.002C125.003 118.638 125.237 118.092 125.237 117.364C125.237 116.653 124.968 116.142 124.431 115.83C123.911 115.518 123.122 115.267 122.065 115.076C121.181 114.92 120.436 114.738 119.829 114.53C119.222 114.305 118.737 114.036 118.373 113.724C118.009 113.412 117.74 113.04 117.567 112.606C117.411 112.173 117.333 111.662 117.333 111.072C117.333 110.448 117.472 109.902 117.749 109.434C118.026 108.949 118.382 108.55 118.815 108.238C119.266 107.909 119.76 107.666 120.297 107.51C120.852 107.337 121.398 107.25 121.935 107.25C122.542 107.25 123.122 107.32 123.677 107.458C124.232 107.58 124.726 107.796 125.159 108.108C125.61 108.42 125.982 108.828 126.277 109.33C126.572 109.833 126.762 110.448 126.849 111.176H124.769C124.613 110.431 124.31 109.894 123.859 109.564C123.426 109.218 122.776 109.044 121.909 109.044C121.129 109.044 120.505 109.226 120.037 109.59C119.569 109.937 119.335 110.405 119.335 110.994C119.335 111.306 119.378 111.575 119.465 111.8C119.569 112.008 119.742 112.199 119.985 112.372C120.228 112.528 120.548 112.676 120.947 112.814C121.363 112.936 121.883 113.048 122.507 113.152C123.2 113.291 123.842 113.447 124.431 113.62C125.02 113.776 125.523 114.002 125.939 114.296C126.372 114.574 126.702 114.946 126.927 115.414C127.17 115.865 127.291 116.454 127.291 117.182C127.291 118.43 126.875 119.435 126.043 120.198C125.211 120.943 123.963 121.316 122.299 121.316Z" fill="white"/>
<path d="M135.096 121.316C133.466 121.316 132.184 120.935 131.248 120.172C130.329 119.392 129.835 118.3 129.766 116.896H131.872C131.958 117.711 132.236 118.352 132.704 118.82C133.189 119.288 133.978 119.522 135.07 119.522C136.11 119.522 136.864 119.349 137.332 119.002C137.8 118.638 138.034 118.092 138.034 117.364C138.034 116.653 137.765 116.142 137.228 115.83C136.708 115.518 135.919 115.267 134.862 115.076C133.978 114.92 133.232 114.738 132.626 114.53C132.019 114.305 131.534 114.036 131.17 113.724C130.806 113.412 130.537 113.04 130.364 112.606C130.208 112.173 130.13 111.662 130.13 111.072C130.13 110.448 130.268 109.902 130.546 109.434C130.823 108.949 131.178 108.55 131.612 108.238C132.062 107.909 132.556 107.666 133.094 107.51C133.648 107.337 134.194 107.25 134.732 107.25C135.338 107.25 135.919 107.32 136.474 107.458C137.028 107.58 137.522 107.796 137.956 108.108C138.406 108.42 138.779 108.828 139.074 109.33C139.368 109.833 139.559 110.448 139.646 111.176H137.566C137.41 110.431 137.106 109.894 136.656 109.564C136.222 109.218 135.572 109.044 134.706 109.044C133.926 109.044 133.302 109.226 132.834 109.59C132.366 109.937 132.132 110.405 132.132 110.994C132.132 111.306 132.175 111.575 132.262 111.8C132.366 112.008 132.539 112.199 132.782 112.372C133.024 112.528 133.345 112.676 133.744 112.814C134.16 112.936 134.68 113.048 135.304 113.152C135.997 113.291 136.638 113.447 137.228 113.62C137.817 113.776 138.32 114.002 138.736 114.296C139.169 114.574 139.498 114.946 139.724 115.414C139.966 115.865 140.088 116.454 140.088 117.182C140.088 118.43 139.672 119.435 138.84 120.198C138.008 120.943 136.76 121.316 135.096 121.316Z" fill="white"/>
<path d="M143.733 107.484H145.891V121.082H143.733V107.484ZM144.773 104.65C144.374 104.65 144.036 104.512 143.759 104.234C143.481 103.957 143.343 103.619 143.343 103.22C143.343 102.822 143.481 102.484 143.759 102.206C144.036 101.929 144.374 101.79 144.773 101.79C145.171 101.79 145.509 101.929 145.787 102.206C146.064 102.484 146.203 102.822 146.203 103.22C146.203 103.619 146.064 103.957 145.787 104.234C145.509 104.512 145.171 104.65 144.773 104.65Z" fill="white"/>
<path d="M156.28 119.522C156.956 119.522 157.572 119.401 158.126 119.158C158.681 118.915 159.149 118.569 159.53 118.118C159.912 117.667 160.206 117.13 160.414 116.506C160.622 115.865 160.726 115.163 160.726 114.4V114.218C160.726 113.438 160.622 112.728 160.414 112.086C160.206 111.445 159.903 110.899 159.504 110.448C159.123 109.998 158.655 109.651 158.1 109.408C157.563 109.166 156.956 109.044 156.28 109.044C155.604 109.044 154.989 109.166 154.434 109.408C153.88 109.651 153.412 109.998 153.03 110.448C152.649 110.899 152.354 111.445 152.146 112.086C151.938 112.71 151.834 113.412 151.834 114.192V114.4C151.834 115.96 152.224 117.208 153.004 118.144C153.802 119.063 154.894 119.522 156.28 119.522ZM156.254 121.316C155.284 121.316 154.391 121.143 153.576 120.796C152.762 120.449 152.06 119.973 151.47 119.366C150.881 118.742 150.422 118.005 150.092 117.156C149.763 116.307 149.598 115.388 149.598 114.4V114.192C149.598 113.17 149.763 112.234 150.092 111.384C150.439 110.535 150.907 109.807 151.496 109.2C152.086 108.576 152.788 108.1 153.602 107.77C154.417 107.424 155.31 107.25 156.28 107.25C157.234 107.25 158.118 107.424 158.932 107.77C159.764 108.1 160.475 108.568 161.064 109.174C161.654 109.781 162.113 110.509 162.442 111.358C162.789 112.208 162.962 113.144 162.962 114.166V114.374C162.962 115.397 162.789 116.341 162.442 117.208C162.113 118.057 161.645 118.785 161.038 119.392C160.449 119.999 159.747 120.475 158.932 120.822C158.118 121.151 157.225 121.316 156.254 121.316Z" fill="white"/>
<path d="M166.634 107.484H168.792V109.642C169.104 109.001 169.624 108.446 170.352 107.978C171.097 107.493 172.033 107.25 173.16 107.25C173.853 107.25 174.494 107.354 175.084 107.562C175.673 107.753 176.176 108.074 176.592 108.524C177.025 108.958 177.354 109.521 177.58 110.214C177.822 110.908 177.944 111.748 177.944 112.736V121.082H175.786V112.58C175.786 111.384 175.526 110.509 175.006 109.954C174.486 109.4 173.68 109.122 172.588 109.122C172.085 109.122 171.6 109.2 171.132 109.356C170.681 109.512 170.282 109.746 169.936 110.058C169.589 110.37 169.312 110.76 169.104 111.228C168.896 111.696 168.792 112.234 168.792 112.84V121.082H166.634V107.484Z" fill="white"/>
<path d="M189.436 107.484H191.594V121.082H189.436V107.484ZM190.476 104.65C190.077 104.65 189.739 104.512 189.462 104.234C189.184 103.957 189.046 103.619 189.046 103.22C189.046 102.822 189.184 102.484 189.462 102.206C189.739 101.929 190.077 101.79 190.476 101.79C190.874 101.79 191.212 101.929 191.49 102.206C191.767 102.484 191.906 102.822 191.906 103.22C191.906 103.619 191.767 103.957 191.49 104.234C191.212 104.512 190.874 104.65 190.476 104.65Z" fill="white"/>
<path d="M196.315 107.484H198.473V109.642C198.785 109.001 199.305 108.446 200.033 107.978C200.779 107.493 201.715 107.25 202.841 107.25C203.535 107.25 204.176 107.354 204.765 107.562C205.355 107.753 205.857 108.074 206.273 108.524C206.707 108.958 207.036 109.521 207.261 110.214C207.504 110.908 207.625 111.748 207.625 112.736V121.082H205.467V112.58C205.467 111.384 205.207 110.509 204.687 109.954C204.167 109.4 203.361 109.122 202.269 109.122C201.767 109.122 201.281 109.2 200.813 109.356C200.363 109.512 199.964 109.746 199.617 110.058C199.271 110.37 198.993 110.76 198.785 111.228C198.577 111.696 198.473 112.234 198.473 112.84V121.082H196.315V107.484Z" fill="white"/>
<path d="M223.199 121.264C221.951 121.264 221.024 120.935 220.417 120.276C219.828 119.617 219.533 118.751 219.533 117.676V109.304H217.583V107.484H219.533V104.39H221.691V107.484H224.863V109.304H221.691V117.468C221.691 118.785 222.255 119.444 223.381 119.444C223.728 119.444 224.031 119.418 224.291 119.366C224.551 119.314 224.803 119.245 225.045 119.158V120.978C224.82 121.065 224.569 121.134 224.291 121.186C224.014 121.238 223.65 121.264 223.199 121.264Z" fill="white"/>
<path d="M228.612 100.984H230.77V109.642C231.082 109.001 231.602 108.446 232.33 107.978C233.076 107.493 234.012 107.25 235.138 107.25C235.832 107.25 236.473 107.354 237.062 107.562C237.652 107.753 238.154 108.074 238.57 108.524C239.004 108.958 239.333 109.521 239.558 110.214C239.801 110.908 239.922 111.748 239.922 112.736V121.082H237.764V112.58C237.764 111.384 237.504 110.509 236.984 109.954C236.464 109.4 235.658 109.122 234.566 109.122C234.064 109.122 233.578 109.2 233.11 109.356C232.66 109.512 232.261 109.746 231.914 110.058C231.568 110.37 231.29 110.76 231.082 111.228C230.874 111.696 230.77 112.234 230.77 112.84V121.082H228.612V100.984Z" fill="white"/>
<path d="M250.045 121.316C249.075 121.316 248.191 121.151 247.393 120.822C246.596 120.493 245.903 120.033 245.313 119.444C244.724 118.837 244.265 118.109 243.935 117.26C243.623 116.411 243.467 115.466 243.467 114.426V114.218C243.467 113.196 243.623 112.26 243.935 111.41C244.247 110.544 244.681 109.807 245.235 109.2C245.807 108.576 246.483 108.1 247.263 107.77C248.043 107.424 248.901 107.25 249.837 107.25C250.617 107.25 251.371 107.38 252.099 107.64C252.845 107.883 253.503 108.273 254.075 108.81C254.647 109.348 255.098 110.05 255.427 110.916C255.774 111.766 255.947 112.797 255.947 114.01V114.712H245.703C245.755 116.272 246.145 117.468 246.873 118.3C247.601 119.115 248.667 119.522 250.071 119.522C252.203 119.522 253.408 118.733 253.685 117.156H255.843C255.601 118.525 254.959 119.565 253.919 120.276C252.879 120.969 251.588 121.316 250.045 121.316ZM253.737 112.97C253.633 111.566 253.235 110.561 252.541 109.954C251.865 109.348 250.964 109.044 249.837 109.044C248.728 109.044 247.818 109.4 247.107 110.11C246.414 110.804 245.972 111.757 245.781 112.97H253.737Z" fill="white"/>
<path d="M266.444 107.484H268.602V109.642C268.914 109.001 269.434 108.446 270.162 107.978C270.908 107.493 271.844 107.25 272.97 107.25C273.664 107.25 274.305 107.354 274.894 107.562C275.484 107.753 275.986 108.074 276.402 108.524C276.836 108.958 277.165 109.521 277.39 110.214C277.633 110.908 277.754 111.748 277.754 112.736V121.082H275.596V112.58C275.596 111.384 275.336 110.509 274.816 109.954C274.296 109.4 273.49 109.122 272.398 109.122C271.896 109.122 271.41 109.2 270.942 109.356C270.492 109.512 270.093 109.746 269.746 110.058C269.4 110.37 269.122 110.76 268.914 111.228C268.706 111.696 268.602 112.234 268.602 112.84V121.082H266.444V107.484Z" fill="white"/>
<path d="M287.877 121.316C286.907 121.316 286.023 121.151 285.225 120.822C284.428 120.493 283.735 120.033 283.145 119.444C282.556 118.837 282.097 118.109 281.767 117.26C281.455 116.411 281.299 115.466 281.299 114.426V114.218C281.299 113.196 281.455 112.26 281.767 111.41C282.079 110.544 282.513 109.807 283.067 109.2C283.639 108.576 284.315 108.1 285.095 107.77C285.875 107.424 286.733 107.25 287.669 107.25C288.449 107.25 289.203 107.38 289.931 107.64C290.677 107.883 291.335 108.273 291.907 108.81C292.479 109.348 292.93 110.05 293.259 110.916C293.606 111.766 293.779 112.797 293.779 114.01V114.712H283.535C283.587 116.272 283.977 117.468 284.705 118.3C285.433 119.115 286.499 119.522 287.903 119.522C290.035 119.522 291.24 118.733 291.517 117.156H293.675C293.433 118.525 292.791 119.565 291.751 120.276C290.711 120.969 289.42 121.316 287.877 121.316ZM291.569 112.97C291.465 111.566 291.067 110.561 290.373 109.954C289.697 109.348 288.796 109.044 287.669 109.044C286.56 109.044 285.65 109.4 284.939 110.11C284.246 110.804 283.804 111.757 283.613 112.97H291.569Z" fill="white"/>
<path d="M295.812 107.484H298.152L301.324 118.43L304.626 107.484H306.499L309.592 118.43L312.79 107.484H315.001L310.762 121.082H308.37L305.536 110.89L302.365 121.082H299.999L295.812 107.484Z" fill="white"/>
<path d="M87 141.484H89.34L92.512 152.43L95.814 141.484H97.686L100.78 152.43L103.978 141.484H106.188L101.95 155.082H99.558L96.724 144.89L93.552 155.082H91.186L87 141.484Z" fill="white"/>
<path d="M112.555 155.316C111.931 155.316 111.342 155.238 110.787 155.082C110.233 154.926 109.747 154.683 109.331 154.354C108.933 154.025 108.612 153.609 108.369 153.106C108.144 152.603 108.031 152.005 108.031 151.312C108.031 150.532 108.222 149.873 108.603 149.336C108.985 148.799 109.487 148.365 110.111 148.036C110.753 147.707 111.481 147.473 112.295 147.334C113.127 147.178 113.977 147.1 114.843 147.1H116.793V146.112C116.793 145.02 116.568 144.24 116.117 143.772C115.667 143.287 114.921 143.044 113.881 143.044C112.009 143.044 110.969 143.859 110.761 145.488H108.603C108.673 144.708 108.863 144.049 109.175 143.512C109.505 142.975 109.912 142.541 110.397 142.212C110.9 141.865 111.455 141.623 112.061 141.484C112.685 141.328 113.327 141.25 113.985 141.25C114.627 141.25 115.251 141.328 115.857 141.484C116.464 141.623 116.993 141.883 117.443 142.264C117.894 142.628 118.258 143.122 118.535 143.746C118.813 144.37 118.951 145.159 118.951 146.112V155.082H116.793V153.366C116.291 154.007 115.71 154.493 115.051 154.822C114.393 155.151 113.561 155.316 112.555 155.316ZM112.763 153.6C113.335 153.6 113.864 153.531 114.349 153.392C114.852 153.236 115.277 153.019 115.623 152.742C115.987 152.465 116.273 152.127 116.481 151.728C116.689 151.312 116.793 150.844 116.793 150.324V148.634H114.921C114.245 148.634 113.613 148.686 113.023 148.79C112.451 148.877 111.949 149.024 111.515 149.232C111.099 149.44 110.77 149.717 110.527 150.064C110.302 150.393 110.189 150.809 110.189 151.312C110.189 152.023 110.38 152.586 110.761 153.002C111.143 153.401 111.81 153.6 112.763 153.6Z" fill="white"/>
<path d="M121.58 141.484H123.92L127.95 152.898L131.928 141.484H134.164L129.276 155.082H126.52L121.58 141.484Z" fill="white"/>
<path d="M142.491 155.316C141.52 155.316 140.636 155.151 139.839 154.822C139.041 154.493 138.348 154.033 137.759 153.444C137.169 152.837 136.71 152.109 136.381 151.26C136.069 150.411 135.913 149.466 135.913 148.426V148.218C135.913 147.195 136.069 146.259 136.381 145.41C136.693 144.543 137.126 143.807 137.681 143.2C138.253 142.576 138.929 142.099 139.709 141.77C140.489 141.423 141.347 141.25 142.283 141.25C143.063 141.25 143.817 141.38 144.545 141.64C145.29 141.883 145.949 142.273 146.521 142.81C147.093 143.347 147.543 144.049 147.873 144.916C148.219 145.765 148.393 146.797 148.393 148.01V148.712H138.149C138.201 150.272 138.591 151.468 139.319 152.3C140.047 153.115 141.113 153.522 142.517 153.522C144.649 153.522 145.853 152.733 146.131 151.156H148.289C148.046 152.525 147.405 153.565 146.365 154.276C145.325 154.969 144.033 155.316 142.491 155.316ZM146.183 146.97C146.079 145.566 145.68 144.561 144.987 143.954C144.311 143.347 143.409 143.044 142.283 143.044C141.173 143.044 140.263 143.399 139.553 144.11C138.859 144.803 138.417 145.757 138.227 146.97H146.183Z" fill="white"/>
<path d="M164.558 153.522C165.234 153.522 165.849 153.401 166.404 153.158C166.958 152.915 167.426 152.569 167.808 152.118C168.189 151.667 168.484 151.13 168.692 150.506C168.9 149.865 169.004 149.163 169.004 148.4V148.218C169.004 147.438 168.9 146.727 168.692 146.086C168.484 145.445 168.18 144.899 167.782 144.448C167.4 143.997 166.932 143.651 166.378 143.408C165.84 143.165 165.234 143.044 164.558 143.044C163.882 143.044 163.266 143.165 162.712 143.408C162.157 143.651 161.689 143.997 161.308 144.448C160.926 144.899 160.632 145.445 160.424 146.086C160.216 146.71 160.112 147.412 160.112 148.192V148.4C160.112 149.96 160.502 151.208 161.282 152.144C162.079 153.063 163.171 153.522 164.558 153.522ZM164.532 155.316C163.561 155.316 162.668 155.143 161.854 154.796C161.039 154.449 160.337 153.973 159.748 153.366C159.158 152.742 158.699 152.005 158.37 151.156C158.04 150.307 157.876 149.388 157.876 148.4V148.192C157.876 147.169 158.04 146.233 158.37 145.384C158.716 144.535 159.184 143.807 159.774 143.2C160.363 142.576 161.065 142.099 161.88 141.77C162.694 141.423 163.587 141.25 164.558 141.25C165.511 141.25 166.395 141.423 167.21 141.77C168.042 142.099 168.752 142.567 169.342 143.174C169.931 143.781 170.39 144.509 170.72 145.358C171.066 146.207 171.24 147.143 171.24 148.166V148.374C171.24 149.397 171.066 150.341 170.72 151.208C170.39 152.057 169.922 152.785 169.316 153.392C168.726 153.999 168.024 154.475 167.21 154.822C166.395 155.151 165.502 155.316 164.532 155.316Z" fill="white"/>
<path d="M175.379 143.304H173.429V141.484H175.379V139.274C175.379 137.887 175.717 136.813 176.393 136.05C177.069 135.287 178.083 134.906 179.435 134.906C179.782 134.906 180.068 134.932 180.293 134.984C180.518 135.019 180.77 135.079 181.047 135.166V136.986C180.856 136.899 180.622 136.83 180.345 136.778C180.085 136.726 179.808 136.7 179.513 136.7C178.802 136.7 178.291 136.917 177.979 137.35C177.684 137.783 177.537 138.347 177.537 139.04V141.484H180.865V143.304H177.537V155.082H175.379V143.304Z" fill="white"/>
<path d="M196.752 155.316C195.799 155.316 194.915 155.16 194.1 154.848C193.303 154.519 192.601 154.059 191.994 153.47C191.405 152.863 190.937 152.135 190.59 151.286C190.261 150.437 190.096 149.483 190.096 148.426V148.218C190.096 147.178 190.27 146.233 190.616 145.384C190.963 144.517 191.431 143.781 192.02 143.174C192.627 142.567 193.329 142.099 194.126 141.77C194.924 141.423 195.782 141.25 196.7 141.25C197.411 141.25 198.096 141.337 198.754 141.51C199.43 141.683 200.028 141.961 200.548 142.342C201.086 142.706 201.536 143.191 201.9 143.798C202.264 144.405 202.498 145.141 202.602 146.008H200.47C200.297 144.933 199.855 144.171 199.144 143.72C198.451 143.269 197.636 143.044 196.7 143.044C196.076 143.044 195.496 143.165 194.958 143.408C194.438 143.651 193.979 143.997 193.58 144.448C193.199 144.881 192.896 145.419 192.67 146.06C192.445 146.701 192.332 147.421 192.332 148.218V148.426C192.332 150.107 192.74 151.381 193.554 152.248C194.386 153.097 195.461 153.522 196.778 153.522C197.264 153.522 197.723 153.453 198.156 153.314C198.607 153.175 199.006 152.967 199.352 152.69C199.716 152.413 200.011 152.066 200.236 151.65C200.479 151.234 200.626 150.749 200.678 150.194H202.68C202.611 150.922 202.412 151.607 202.082 152.248C201.77 152.872 201.354 153.409 200.834 153.86C200.314 154.311 199.708 154.666 199.014 154.926C198.321 155.186 197.567 155.316 196.752 155.316Z" fill="white"/>
<path d="M206.243 141.484H208.401V143.928C208.609 143.547 208.843 143.2 209.103 142.888C209.38 142.559 209.692 142.281 210.039 142.056C210.386 141.813 210.793 141.623 211.261 141.484C211.729 141.345 212.266 141.267 212.873 141.25V143.278C212.197 143.313 211.582 143.399 211.027 143.538C210.472 143.677 209.996 143.911 209.597 144.24C209.216 144.569 208.921 145.011 208.713 145.566C208.505 146.103 208.401 146.788 208.401 147.62V155.082H206.243V141.484Z" fill="white"/>
<path d="M220.246 153.678L214.916 141.484H217.23L221.39 151.234L225.16 141.484H227.37L219.856 159.814H217.672L220.246 153.678Z" fill="white"/>
<path d="M230.517 141.484H232.675V143.772C232.865 143.443 233.117 143.131 233.429 142.836C233.758 142.524 234.122 142.255 234.521 142.03C234.919 141.787 235.353 141.597 235.821 141.458C236.289 141.319 236.774 141.25 237.277 141.25C238.161 141.25 238.984 141.406 239.747 141.718C240.509 142.03 241.159 142.481 241.697 143.07C242.251 143.659 242.685 144.379 242.997 145.228C243.309 146.077 243.465 147.031 243.465 148.088V148.296C243.465 149.336 243.317 150.289 243.023 151.156C242.728 152.005 242.312 152.742 241.775 153.366C241.237 153.99 240.587 154.475 239.825 154.822C239.062 155.151 238.213 155.316 237.277 155.316C236.15 155.316 235.197 155.073 234.417 154.588C233.654 154.103 233.073 153.522 232.675 152.846V159.814H230.517V141.484ZM237.069 153.522C238.421 153.522 239.452 153.089 240.163 152.222C240.873 151.338 241.229 150.064 241.229 148.4V148.192C241.229 147.343 241.116 146.597 240.891 145.956C240.665 145.297 240.362 144.76 239.981 144.344C239.617 143.911 239.175 143.59 238.655 143.382C238.152 143.157 237.615 143.044 237.043 143.044C236.419 143.044 235.829 143.148 235.275 143.356C234.737 143.564 234.269 143.885 233.871 144.318C233.472 144.734 233.16 145.271 232.935 145.93C232.709 146.571 232.597 147.325 232.597 148.192V148.4C232.597 149.267 232.701 150.021 232.909 150.662C233.134 151.303 233.437 151.841 233.819 152.274C234.217 152.69 234.694 153.002 235.249 153.21C235.803 153.418 236.41 153.522 237.069 153.522Z" fill="white"/>
<path d="M251.256 155.264C250.008 155.264 249.081 154.935 248.474 154.276C247.885 153.617 247.59 152.751 247.59 151.676V143.304H245.64V141.484H247.59V138.39H249.748V141.484H252.92V143.304H249.748V151.468C249.748 152.785 250.311 153.444 251.438 153.444C251.785 153.444 252.088 153.418 252.348 153.366C252.608 153.314 252.859 153.245 253.102 153.158V154.978C252.877 155.065 252.625 155.134 252.348 155.186C252.071 155.238 251.707 155.264 251.256 155.264Z" fill="white"/>
<path d="M262.337 153.522C263.013 153.522 263.628 153.401 264.183 153.158C264.738 152.915 265.206 152.569 265.587 152.118C265.968 151.667 266.263 151.13 266.471 150.506C266.679 149.865 266.783 149.163 266.783 148.4V148.218C266.783 147.438 266.679 146.727 266.471 146.086C266.263 145.445 265.96 144.899 265.561 144.448C265.18 143.997 264.712 143.651 264.157 143.408C263.62 143.165 263.013 143.044 262.337 143.044C261.661 143.044 261.046 143.165 260.491 143.408C259.936 143.651 259.468 143.997 259.087 144.448C258.706 144.899 258.411 145.445 258.203 146.086C257.995 146.71 257.891 147.412 257.891 148.192V148.4C257.891 149.96 258.281 151.208 259.061 152.144C259.858 153.063 260.95 153.522 262.337 153.522ZM262.311 155.316C261.34 155.316 260.448 155.143 259.633 154.796C258.818 154.449 258.116 153.973 257.527 153.366C256.938 152.742 256.478 152.005 256.149 151.156C255.82 150.307 255.655 149.388 255.655 148.4V148.192C255.655 147.169 255.82 146.233 256.149 145.384C256.496 144.535 256.964 143.807 257.553 143.2C258.142 142.576 258.844 142.099 259.659 141.77C260.474 141.423 261.366 141.25 262.337 141.25C263.29 141.25 264.174 141.423 264.989 141.77C265.821 142.099 266.532 142.567 267.121 143.174C267.71 143.781 268.17 144.509 268.499 145.358C268.846 146.207 269.019 147.143 269.019 148.166V148.374C269.019 149.397 268.846 150.341 268.499 151.208C268.17 152.057 267.702 152.785 267.095 153.392C266.506 153.999 265.804 154.475 264.989 154.822C264.174 155.151 263.282 155.316 262.311 155.316Z" fill="white"/>
</g>
<g opacity="0.6">
<path d="M450.611 102.492H452.873V110.916H462.649V102.492H464.911V121.082H462.649V112.814H452.873V121.082H450.611V102.492Z" fill="white"/>
<path d="M469.804 107.484H471.962V121.082H469.804V107.484ZM470.844 104.65C470.446 104.65 470.108 104.512 469.83 104.234C469.553 103.957 469.414 103.619 469.414 103.22C469.414 102.822 469.553 102.484 469.83 102.206C470.108 101.929 470.446 101.79 470.844 101.79C471.243 101.79 471.581 101.929 471.858 102.206C472.136 102.484 472.274 102.822 472.274 103.22C472.274 103.619 472.136 103.957 471.858 104.234C471.581 104.512 471.243 104.65 470.844 104.65Z" fill="white"/>
<path d="M482.118 126.048C481.113 126.048 480.237 125.935 479.492 125.71C478.764 125.485 478.149 125.181 477.646 124.8C477.161 124.436 476.779 123.994 476.502 123.474C476.225 122.971 476.043 122.434 475.956 121.862H478.166C478.478 123.439 479.787 124.228 482.092 124.228C483.427 124.228 484.484 123.89 485.264 123.214C486.061 122.555 486.46 121.498 486.46 120.042V118.066C486.269 118.395 486.009 118.716 485.68 119.028C485.368 119.34 485.004 119.617 484.588 119.86C484.189 120.085 483.756 120.276 483.288 120.432C482.82 120.571 482.343 120.64 481.858 120.64C480.974 120.64 480.151 120.484 479.388 120.172C478.625 119.843 477.967 119.392 477.412 118.82C476.875 118.248 476.45 117.572 476.138 116.792C475.826 115.995 475.67 115.128 475.67 114.192V114.01C475.67 113.092 475.826 112.225 476.138 111.41C476.45 110.578 476.883 109.859 477.438 109.252C477.993 108.628 478.66 108.143 479.44 107.796C480.22 107.432 481.078 107.25 482.014 107.25C483.158 107.25 484.085 107.493 484.796 107.978C485.507 108.446 486.061 109.01 486.46 109.668V107.484H488.618V120.172C488.618 121.16 488.453 122.018 488.124 122.746C487.795 123.491 487.344 124.107 486.772 124.592C486.2 125.077 485.515 125.441 484.718 125.684C483.938 125.927 483.071 126.048 482.118 126.048ZM482.092 118.846C482.716 118.846 483.297 118.742 483.834 118.534C484.389 118.309 484.865 117.997 485.264 117.598C485.663 117.182 485.975 116.679 486.2 116.09C486.425 115.483 486.538 114.799 486.538 114.036V113.854C486.538 112.329 486.148 111.15 485.368 110.318C484.605 109.469 483.557 109.044 482.222 109.044C481.546 109.044 480.939 109.166 480.402 109.408C479.865 109.651 479.414 109.989 479.05 110.422C478.686 110.838 478.4 111.35 478.192 111.956C478.001 112.546 477.906 113.196 477.906 113.906V114.114C477.906 114.86 478.019 115.527 478.244 116.116C478.469 116.688 478.764 117.182 479.128 117.598C479.509 117.997 479.951 118.309 480.454 118.534C480.974 118.742 481.52 118.846 482.092 118.846Z" fill="white"/>
<path d="M493.289 100.984H495.447V109.642C495.759 109.001 496.279 108.446 497.007 107.978C497.753 107.493 498.689 107.25 499.815 107.25C500.509 107.25 501.15 107.354 501.739 107.562C502.329 107.753 502.831 108.074 503.247 108.524C503.681 108.958 504.01 109.521 504.235 110.214C504.478 110.908 504.599 111.748 504.599 112.736V121.082H502.441V112.58C502.441 111.384 502.181 110.509 501.661 109.954C501.141 109.4 500.335 109.122 499.243 109.122C498.741 109.122 498.255 109.2 497.787 109.356C497.337 109.512 496.938 109.746 496.591 110.058C496.245 110.37 495.967 110.76 495.759 111.228C495.551 111.696 495.447 112.234 495.447 112.84V121.082H493.289V100.984Z" fill="white"/>
<path d="M508.535 112.918H514.099V114.946H508.535V112.918Z" fill="white"/>
<path d="M527.923 118.742C527.732 119.071 527.472 119.392 527.143 119.704C526.813 120.016 526.441 120.293 526.025 120.536C525.626 120.761 525.184 120.943 524.699 121.082C524.231 121.238 523.754 121.316 523.269 121.316C522.385 121.316 521.561 121.169 520.799 120.874C520.053 120.562 519.403 120.12 518.849 119.548C518.311 118.959 517.887 118.248 517.575 117.416C517.28 116.567 517.133 115.613 517.133 114.556V114.348C517.133 113.308 517.289 112.355 517.601 111.488C517.913 110.622 518.346 109.876 518.901 109.252C519.455 108.611 520.123 108.117 520.903 107.77C521.683 107.424 522.541 107.25 523.477 107.25C524.621 107.25 525.548 107.493 526.259 107.978C526.969 108.446 527.524 109.01 527.923 109.668V107.484H530.081V125.814H527.923V118.742ZM523.503 119.522C524.127 119.522 524.716 119.418 525.271 119.21C525.825 119.002 526.302 118.69 526.701 118.274C527.099 117.841 527.411 117.303 527.637 116.662C527.879 116.003 528.001 115.241 528.001 114.374V114.166C528.001 112.416 527.611 111.124 526.831 110.292C526.068 109.46 525.019 109.044 523.685 109.044C522.333 109.044 521.275 109.495 520.513 110.396C519.75 111.298 519.369 112.58 519.369 114.244V114.452C519.369 115.319 519.473 116.073 519.681 116.714C519.906 117.338 520.201 117.858 520.565 118.274C520.946 118.69 521.388 119.002 521.891 119.21C522.393 119.418 522.931 119.522 523.503 119.522Z" fill="white"/>
<path d="M539.354 121.316C538.678 121.316 538.046 121.221 537.456 121.03C536.884 120.839 536.39 120.536 535.974 120.12C535.558 119.687 535.229 119.141 534.986 118.482C534.744 117.823 534.622 117.026 534.622 116.09V107.484H536.78V115.986C536.78 117.182 537.032 118.057 537.534 118.612C538.054 119.167 538.852 119.444 539.926 119.444C540.412 119.444 540.88 119.366 541.33 119.21C541.781 119.054 542.18 118.82 542.526 118.508C542.873 118.196 543.15 117.806 543.358 117.338C543.566 116.87 543.67 116.333 543.67 115.726V107.484H545.828V121.082H543.67V118.924C543.358 119.565 542.83 120.129 542.084 120.614C541.356 121.082 540.446 121.316 539.354 121.316Z" fill="white"/>
<path d="M553.926 121.316C553.302 121.316 552.713 121.238 552.158 121.082C551.603 120.926 551.118 120.683 550.702 120.354C550.303 120.025 549.983 119.609 549.74 119.106C549.515 118.603 549.402 118.005 549.402 117.312C549.402 116.532 549.593 115.873 549.974 115.336C550.355 114.799 550.858 114.366 551.482 114.036C552.123 113.707 552.851 113.473 553.666 113.334C554.498 113.178 555.347 113.1 556.214 113.1H558.164V112.112C558.164 111.02 557.939 110.24 557.488 109.772C557.037 109.287 556.292 109.044 555.252 109.044C553.38 109.044 552.34 109.859 552.132 111.488H549.974C550.043 110.708 550.234 110.05 550.546 109.512C550.875 108.975 551.283 108.542 551.768 108.212C552.271 107.866 552.825 107.623 553.432 107.484C554.056 107.328 554.697 107.25 555.356 107.25C555.997 107.25 556.621 107.328 557.228 107.484C557.835 107.623 558.363 107.883 558.814 108.264C559.265 108.628 559.629 109.122 559.906 109.746C560.183 110.37 560.322 111.159 560.322 112.112V121.082H558.164V119.366C557.661 120.007 557.081 120.493 556.422 120.822C555.763 121.151 554.931 121.316 553.926 121.316ZM554.134 119.6C554.706 119.6 555.235 119.531 555.72 119.392C556.223 119.236 556.647 119.019 556.994 118.742C557.358 118.465 557.644 118.127 557.852 117.728C558.06 117.312 558.164 116.844 558.164 116.324V114.634H556.292C555.616 114.634 554.983 114.686 554.394 114.79C553.822 114.877 553.319 115.024 552.886 115.232C552.47 115.44 552.141 115.717 551.898 116.064C551.673 116.393 551.56 116.809 551.56 117.312C551.56 118.023 551.751 118.586 552.132 119.002C552.513 119.401 553.181 119.6 554.134 119.6Z" fill="white"/>
<path d="M564.918 100.984H567.102V121.082H564.918V100.984Z" fill="white"/>
<path d="M571.875 107.484H574.033V121.082H571.875V107.484ZM572.915 104.65C572.516 104.65 572.178 104.512 571.901 104.234C571.623 103.957 571.485 103.619 571.485 103.22C571.485 102.822 571.623 102.484 571.901 102.206C572.178 101.929 572.516 101.79 572.915 101.79C573.313 101.79 573.651 101.929 573.929 102.206C574.206 102.484 574.345 102.822 574.345 103.22C574.345 103.619 574.206 103.957 573.929 104.234C573.651 104.512 573.313 104.65 572.915 104.65Z" fill="white"/>
<path d="M582.888 121.264C581.64 121.264 580.713 120.935 580.106 120.276C579.517 119.617 579.222 118.751 579.222 117.676V109.304H577.272V107.484H579.222V104.39H581.38V107.484H584.552V109.304H581.38V117.468C581.38 118.785 581.944 119.444 583.07 119.444C583.417 119.444 583.72 119.418 583.98 119.366C584.24 119.314 584.492 119.245 584.734 119.158V120.978C584.509 121.065 584.258 121.134 583.98 121.186C583.703 121.238 583.339 121.264 582.888 121.264Z" fill="white"/>
<path d="M592.097 119.678L586.767 107.484H589.081L593.241 117.234L597.011 107.484H599.221L591.707 125.814H589.523L592.097 119.678Z" fill="white"/>
<path d="M455.577 155.316C454.693 155.316 453.87 155.169 453.107 154.874C452.362 154.562 451.712 154.12 451.157 153.548C450.62 152.959 450.195 152.248 449.883 151.416C449.589 150.567 449.441 149.613 449.441 148.556V148.348C449.441 147.308 449.597 146.355 449.909 145.488C450.221 144.621 450.655 143.876 451.209 143.252C451.764 142.611 452.431 142.117 453.211 141.77C453.991 141.423 454.849 141.25 455.785 141.25C456.929 141.25 457.857 141.493 458.567 141.978C459.278 142.446 459.833 143.009 460.231 143.668V134.984H462.389V155.082H460.231V152.742C460.041 153.071 459.781 153.392 459.451 153.704C459.122 154.016 458.749 154.293 458.333 154.536C457.935 154.761 457.493 154.943 457.007 155.082C456.539 155.238 456.063 155.316 455.577 155.316ZM455.811 153.522C456.435 153.522 457.025 153.418 457.579 153.21C458.134 153.002 458.611 152.69 459.009 152.274C459.408 151.841 459.72 151.303 459.945 150.662C460.188 150.003 460.309 149.241 460.309 148.374V148.166C460.309 146.415 459.919 145.124 459.139 144.292C458.377 143.46 457.328 143.044 455.993 143.044C454.641 143.044 453.584 143.495 452.821 144.396C452.059 145.297 451.677 146.58 451.677 148.244V148.452C451.677 149.319 451.781 150.073 451.989 150.714C452.215 151.338 452.509 151.858 452.873 152.274C453.255 152.69 453.697 153.002 454.199 153.21C454.702 153.418 455.239 153.522 455.811 153.522Z" fill="white"/>
<path d="M472.625 155.316C471.654 155.316 470.77 155.151 469.973 154.822C469.176 154.493 468.482 154.033 467.893 153.444C467.304 152.837 466.844 152.109 466.515 151.26C466.203 150.411 466.047 149.466 466.047 148.426V148.218C466.047 147.195 466.203 146.259 466.515 145.41C466.827 144.543 467.26 143.807 467.815 143.2C468.387 142.576 469.063 142.099 469.843 141.77C470.623 141.423 471.481 141.25 472.417 141.25C473.197 141.25 473.951 141.38 474.679 141.64C475.424 141.883 476.083 142.273 476.655 142.81C477.227 143.347 477.678 144.049 478.007 144.916C478.354 145.765 478.527 146.797 478.527 148.01V148.712H468.283C468.335 150.272 468.725 151.468 469.453 152.3C470.181 153.115 471.247 153.522 472.651 153.522C474.783 153.522 475.988 152.733 476.265 151.156H478.423C478.18 152.525 477.539 153.565 476.499 154.276C475.459 154.969 474.168 155.316 472.625 155.316ZM476.317 146.97C476.213 145.566 475.814 144.561 475.121 143.954C474.445 143.347 473.544 143.044 472.417 143.044C471.308 143.044 470.398 143.399 469.687 144.11C468.994 144.803 468.552 145.757 468.361 146.97H476.317Z" fill="white"/>
<path d="M486.482 155.316C484.853 155.316 483.57 154.935 482.634 154.172C481.715 153.392 481.221 152.3 481.152 150.896H483.258C483.345 151.711 483.622 152.352 484.09 152.82C484.575 153.288 485.364 153.522 486.456 153.522C487.496 153.522 488.25 153.349 488.718 153.002C489.186 152.638 489.42 152.092 489.42 151.364C489.42 150.653 489.151 150.142 488.614 149.83C488.094 149.518 487.305 149.267 486.248 149.076C485.364 148.92 484.619 148.738 484.012 148.53C483.405 148.305 482.92 148.036 482.556 147.724C482.192 147.412 481.923 147.039 481.75 146.606C481.594 146.173 481.516 145.661 481.516 145.072C481.516 144.448 481.655 143.902 481.932 143.434C482.209 142.949 482.565 142.55 482.998 142.238C483.449 141.909 483.943 141.666 484.48 141.51C485.035 141.337 485.581 141.25 486.118 141.25C486.725 141.25 487.305 141.319 487.86 141.458C488.415 141.579 488.909 141.796 489.342 142.108C489.793 142.42 490.165 142.827 490.46 143.33C490.755 143.833 490.945 144.448 491.032 145.176H488.952C488.796 144.431 488.493 143.893 488.042 143.564C487.609 143.217 486.959 143.044 486.092 143.044C485.312 143.044 484.688 143.226 484.22 143.59C483.752 143.937 483.518 144.405 483.518 144.994C483.518 145.306 483.561 145.575 483.648 145.8C483.752 146.008 483.925 146.199 484.168 146.372C484.411 146.528 484.731 146.675 485.13 146.814C485.546 146.935 486.066 147.048 486.69 147.152C487.383 147.291 488.025 147.447 488.614 147.62C489.203 147.776 489.706 148.001 490.122 148.296C490.555 148.573 490.885 148.946 491.11 149.414C491.353 149.865 491.474 150.454 491.474 151.182C491.474 152.43 491.058 153.435 490.226 154.198C489.394 154.943 488.146 155.316 486.482 155.316Z" fill="white"/>
<path d="M495.119 141.484H497.277V155.082H495.119V141.484ZM496.159 138.65C495.76 138.65 495.422 138.511 495.145 138.234C494.867 137.957 494.729 137.619 494.729 137.22C494.729 136.821 494.867 136.483 495.145 136.206C495.422 135.929 495.76 135.79 496.159 135.79C496.557 135.79 496.895 135.929 497.173 136.206C497.45 136.483 497.589 136.821 497.589 137.22C497.589 137.619 497.45 137.957 497.173 138.234C496.895 138.511 496.557 138.65 496.159 138.65Z" fill="white"/>
<path d="M507.432 160.048C506.427 160.048 505.552 159.935 504.806 159.71C504.078 159.485 503.463 159.181 502.96 158.8C502.475 158.436 502.094 157.994 501.816 157.474C501.539 156.971 501.357 156.434 501.27 155.862H503.48C503.792 157.439 505.101 158.228 507.406 158.228C508.741 158.228 509.798 157.89 510.578 157.214C511.376 156.555 511.774 155.498 511.774 154.042V152.066C511.584 152.395 511.324 152.716 510.994 153.028C510.682 153.34 510.318 153.617 509.902 153.86C509.504 154.085 509.07 154.276 508.602 154.432C508.134 154.571 507.658 154.64 507.172 154.64C506.288 154.64 505.465 154.484 504.702 154.172C503.94 153.843 503.281 153.392 502.726 152.82C502.189 152.248 501.764 151.572 501.452 150.792C501.14 149.995 500.984 149.128 500.984 148.192V148.01C500.984 147.091 501.14 146.225 501.452 145.41C501.764 144.578 502.198 143.859 502.752 143.252C503.307 142.628 503.974 142.143 504.754 141.796C505.534 141.432 506.392 141.25 507.328 141.25C508.472 141.25 509.4 141.493 510.11 141.978C510.821 142.446 511.376 143.009 511.774 143.668V141.484H513.932V154.172C513.932 155.16 513.768 156.018 513.438 156.746C513.109 157.491 512.658 158.107 512.086 158.592C511.514 159.077 510.83 159.441 510.032 159.684C509.252 159.927 508.386 160.048 507.432 160.048ZM507.406 152.846C508.03 152.846 508.611 152.742 509.148 152.534C509.703 152.309 510.18 151.997 510.578 151.598C510.977 151.182 511.289 150.679 511.514 150.09C511.74 149.483 511.852 148.799 511.852 148.036V147.854C511.852 146.329 511.462 145.15 510.682 144.318C509.92 143.469 508.871 143.044 507.536 143.044C506.86 143.044 506.254 143.165 505.716 143.408C505.179 143.651 504.728 143.989 504.364 144.422C504 144.838 503.714 145.349 503.506 145.956C503.316 146.545 503.22 147.195 503.22 147.906V148.114C503.22 148.859 503.333 149.527 503.558 150.116C503.784 150.688 504.078 151.182 504.442 151.598C504.824 151.997 505.266 152.309 505.768 152.534C506.288 152.742 506.834 152.846 507.406 152.846Z" fill="white"/>
<path d="M518.604 141.484H520.762V143.642C521.074 143.001 521.594 142.446 522.322 141.978C523.067 141.493 524.003 141.25 525.13 141.25C525.823 141.25 526.465 141.354 527.054 141.562C527.643 141.753 528.146 142.073 528.562 142.524C528.995 142.957 529.325 143.521 529.55 144.214C529.793 144.907 529.914 145.748 529.914 146.736V155.082H527.756V146.58C527.756 145.384 527.496 144.509 526.976 143.954C526.456 143.399 525.65 143.122 524.558 143.122C524.055 143.122 523.57 143.2 523.102 143.356C522.651 143.512 522.253 143.746 521.906 144.058C521.559 144.37 521.282 144.76 521.074 145.228C520.866 145.696 520.762 146.233 520.762 146.84V155.082H518.604V141.484Z" fill="white"/>
<path d="M546.996 155.316C546.043 155.316 545.159 155.16 544.344 154.848C543.547 154.519 542.845 154.059 542.238 153.47C541.649 152.863 541.181 152.135 540.834 151.286C540.505 150.437 540.34 149.483 540.34 148.426V148.218C540.34 147.178 540.513 146.233 540.86 145.384C541.207 144.517 541.675 143.781 542.264 143.174C542.871 142.567 543.573 142.099 544.37 141.77C545.167 141.423 546.025 141.25 546.944 141.25C547.655 141.25 548.339 141.337 548.998 141.51C549.674 141.683 550.272 141.961 550.792 142.342C551.329 142.706 551.78 143.191 552.144 143.798C552.508 144.405 552.742 145.141 552.846 146.008H550.714C550.541 144.933 550.099 144.171 549.388 143.72C548.695 143.269 547.88 143.044 546.944 143.044C546.32 143.044 545.739 143.165 545.202 143.408C544.682 143.651 544.223 143.997 543.824 144.448C543.443 144.881 543.139 145.419 542.914 146.06C542.689 146.701 542.576 147.421 542.576 148.218V148.426C542.576 150.107 542.983 151.381 543.798 152.248C544.63 153.097 545.705 153.522 547.022 153.522C547.507 153.522 547.967 153.453 548.4 153.314C548.851 153.175 549.249 152.967 549.596 152.69C549.96 152.413 550.255 152.066 550.48 151.65C550.723 151.234 550.87 150.749 550.922 150.194H552.924C552.855 150.922 552.655 151.607 552.326 152.248C552.014 152.872 551.598 153.409 551.078 153.86C550.558 154.311 549.951 154.666 549.258 154.926C548.565 155.186 547.811 155.316 546.996 155.316Z" fill="white"/>
<path d="M556.487 141.484H558.645V143.928C558.853 143.547 559.087 143.2 559.347 142.888C559.624 142.559 559.936 142.281 560.283 142.056C560.629 141.813 561.037 141.623 561.505 141.484C561.973 141.345 562.51 141.267 563.117 141.25V143.278C562.441 143.313 561.825 143.399 561.271 143.538C560.716 143.677 560.239 143.911 559.841 144.24C559.459 144.569 559.165 145.011 558.957 145.566C558.749 146.103 558.645 146.788 558.645 147.62V155.082H556.487V141.484Z" fill="white"/>
<path d="M569.846 155.316C569.222 155.316 568.632 155.238 568.078 155.082C567.523 154.926 567.038 154.683 566.622 154.354C566.223 154.025 565.902 153.609 565.66 153.106C565.434 152.603 565.322 152.005 565.322 151.312C565.322 150.532 565.512 149.873 565.894 149.336C566.275 148.799 566.778 148.365 567.402 148.036C568.043 147.707 568.771 147.473 569.586 147.334C570.418 147.178 571.267 147.1 572.134 147.1H574.084V146.112C574.084 145.02 573.858 144.24 573.408 143.772C572.957 143.287 572.212 143.044 571.172 143.044C569.3 143.044 568.26 143.859 568.052 145.488H565.894C565.963 144.708 566.154 144.049 566.466 143.512C566.795 142.975 567.202 142.541 567.688 142.212C568.19 141.865 568.745 141.623 569.352 141.484C569.976 141.328 570.617 141.25 571.276 141.25C571.917 141.25 572.541 141.328 573.148 141.484C573.754 141.623 574.283 141.883 574.734 142.264C575.184 142.628 575.548 143.122 575.826 143.746C576.103 144.37 576.242 145.159 576.242 146.112V155.082H574.084V153.366C573.581 154.007 573 154.493 572.342 154.822C571.683 155.151 570.851 155.316 569.846 155.316ZM570.054 153.6C570.626 153.6 571.154 153.531 571.64 153.392C572.142 153.236 572.567 153.019 572.914 152.742C573.278 152.465 573.564 152.127 573.772 151.728C573.98 151.312 574.084 150.844 574.084 150.324V148.634H572.212C571.536 148.634 570.903 148.686 570.314 148.79C569.742 148.877 569.239 149.024 568.806 149.232C568.39 149.44 568.06 149.717 567.818 150.064C567.592 150.393 567.48 150.809 567.48 151.312C567.48 152.023 567.67 152.586 568.052 153.002C568.433 153.401 569.1 153.6 570.054 153.6Z" fill="white"/>
<path d="M581.253 143.304H579.303V141.484H581.253V139.274C581.253 137.887 581.591 136.813 582.267 136.05C582.943 135.287 583.957 134.906 585.309 134.906C585.656 134.906 585.942 134.932 586.167 134.984C586.393 135.019 586.644 135.079 586.921 135.166V136.986C586.731 136.899 586.497 136.83 586.219 136.778C585.959 136.726 585.682 136.7 585.387 136.7C584.677 136.7 584.165 136.917 583.853 137.35C583.559 137.783 583.411 138.347 583.411 139.04V141.484H586.739V143.304H583.411V155.082H581.253V143.304Z" fill="white"/>
<path d="M594.365 155.264C593.117 155.264 592.189 154.935 591.583 154.276C590.993 153.617 590.699 152.751 590.699 151.676V143.304H588.749V141.484H590.699V138.39H592.857V141.484H596.029V143.304H592.857V151.468C592.857 152.785 593.42 153.444 594.547 153.444C594.893 153.444 595.197 153.418 595.457 153.366C595.717 153.314 595.968 153.245 596.211 153.158V154.978C595.985 155.065 595.734 155.134 595.457 155.186C595.179 155.238 594.815 155.264 594.365 155.264Z" fill="white"/>
</g>
</g>
<g clip-path="url(#clip1_0_49)">
<path d="M655.5 122.701C655.5 182.188 607.27 230.417 547.783 230.417C480.436 230.417 413.128 176.579 359.25 122.701C305.372 68.8229 238.064 14.9844 170.716 14.9844C111.23 14.9844 63 63.2139 63 122.701C63 182.188 111.23 230.417 170.716 230.417C238.064 230.417 305.372 176.579 359.25 122.701C413.128 68.8229 480.436 14.9844 547.783 14.9844C607.27 14.9844 655.5 63.2139 655.5 122.701Z" stroke="white" stroke-miterlimit="10" stroke-linecap="square"/>
</g>
<defs>
<linearGradient id="paint0_linear_0_49" x1="140" y1="129.984" x2="606" y2="123.984" gradientUnits="userSpaceOnUse">
<stop stop-color="white"/>
<stop offset="1" stop-color="white" stop-opacity="0"/>
</linearGradient>
<clipPath id="clip0_0_49">
<rect width="594" height="217" fill="white" transform="translate(63 14.9844)"/>
</clipPath>
<clipPath id="clip1_0_49">
<rect width="720" height="217" fill="white" transform="translate(0 14.9844)"/>
</clipPath>
</defs>
</svg>
